<svg width="14" height="16" viewBox="0 0 14 16" fill="none" xmlns="http://www.w3.org/2000/svg">
<path id="Exclude" fill-rule="evenodd" clip-rule="evenodd" d="M2.61439 2.01016C5.52833 1.66328 8.47159 1.66328 11.3855 2.01015L2.61439 2.01016ZM11.3857 2.01018C11.8561 2.06642 12.25 2.49539 12.25 3.05811V13.8817L10.2846 13.0754C10.1023 13.0006 9.89774 13.0006 9.71535 13.0754L7 14.1893L4.28465 13.0754C4.10226 13.0006 3.89774 13.0006 3.71535 13.0754L1.75 13.8817V3.05811C1.75 2.49507 2.14345 2.06638 2.61426 2.01018M2.43694 0.520693C5.46879 0.159769 8.53121 0.159769 11.5631 0.520693L11.5633 0.520719C12.8529 0.674616 13.75 1.80281 13.75 3.05811V15C13.75 15.25 13.6254 15.4836 13.4177 15.6229C13.2101 15.7622 12.9467 15.7888 12.7154 15.6939L10 14.58L7.28465 15.6939C7.10226 15.7687 6.89774 15.7687 6.71535 15.6939L4 14.58L1.28465 15.6939C1.05332 15.7888 0.789918 15.7622 0.58226 15.6229C0.374601 15.4836 0.25 15.25 0.25 15V3.05811C0.25 1.8031 1.14607 0.674603 2.43681 0.520709L2.43694 0.520693ZM10.4617 5.40902C10.7881 5.66402 10.846 6.13536 10.591 6.46177L7.46602 10.4618C7.33736 10.6265 7.1458 10.73 6.93754 10.7474C6.72927 10.7648 6.52317 10.6946 6.36893 10.5536L4.49393 8.83927C4.18823 8.55977 4.16698 8.08537 4.44648 7.77967C4.72598 7.47397 5.20038 7.45273 5.50608 7.73223L6.78294 8.89964L9.40899 5.5383C9.66399 5.21189 10.1353 5.15401 10.4617 5.40902Z" fill="#65657E"/>
</svg>
