<svg width="24" height="24" viewBox="0 0 24 24" fill="none" xmlns="http://www.w3.org/2000/svg">
<g id="Icons / System / Actions / Calendar">
<path id="Shape" fill-rule="evenodd" clip-rule="evenodd" d="M9.33337 5.33325C9.70156 5.33325 10 5.63173 10 5.99992V6.66659H14V5.99992C14 5.63173 14.2985 5.33325 14.6667 5.33325C15.0349 5.33325 15.3334 5.63173 15.3334 5.99992V6.66659H16.6667C17.7713 6.66659 18.6667 7.56202 18.6667 8.66658V16.6666C18.6667 17.7712 17.7713 18.6666 16.6667 18.6666H7.33337C6.2288 18.6666 5.33337 17.7712 5.33337 16.6666V8.66658C5.33337 7.56202 6.2288 6.66659 7.33337 6.66659H8.66671V5.99992C8.66671 5.63173 8.96518 5.33325 9.33337 5.33325ZM8.66671 7.99992H7.33337C6.96518 7.99992 6.66671 8.2984 6.66671 8.66658V16.6666C6.66671 17.0348 6.96518 17.3333 7.33337 17.3333H16.6667C17.0349 17.3333 17.3334 17.0348 17.3334 16.6666V8.66658C17.3334 8.2984 17.0349 7.99992 16.6667 7.99992H15.3334V8.66658C15.3334 9.03477 15.0349 9.33325 14.6667 9.33325C14.2985 9.33325 14 9.03477 14 8.66658V7.99992H10V8.66658C10 9.03477 9.70156 9.33325 9.33337 9.33325C8.96518 9.33325 8.66671 9.03477 8.66671 8.66658V7.99992ZM8.00004 11.3333C8.00004 10.9651 8.29852 10.6666 8.66671 10.6666H15.3334C15.7016 10.6666 16 10.9651 16 11.3333C16 11.7014 15.7016 11.9999 15.3334 11.9999H8.66671C8.29852 11.9999 8.00004 11.7014 8.00004 11.3333Z" fill="#242433"/>
</g>
</svg>
